<?xml version="1.0" standalone="no"?>
<!DOCTYPE svg PUBLIC "-//W3C//DTD SVG 20010904//EN"
 "http://www.w3.org/TR/2001/REC-SVG-20010904/DTD/svg10.dtd">
<svg version="1.0" xmlns="http://www.w3.org/2000/svg"
 width="500.000000pt" height="500.000000pt" viewBox="0 0 500.000000 500.000000"
 preserveAspectRatio="xMidYMid meet">
<metadata>
Created by potrace 1.14, written by Peter Selinger 2001-2017
</metadata>
<g transform="translate(0.000000,500.000000) scale(0.100000,-0.100000)"
fill="#000000" stroke="none">
<path d="M2110 3993 c-572 -59 -1021 -490 -1097 -1054 -12 -93 -7 -289 11
-381 75 -393 335 -723 698 -887 66 -30 179 -67 231 -77 17 -2 33 -7 37 -9 12
-7 147 -18 230 -18 258 0 468 65 690 212 l58 39 1 -64 c0 -36 7 -77 15 -92 22
-42 640 -652 662 -653 10 -1 30 -3 44 -4 44 -5 78 18 181 120 103 102 129 140
124 185 -1 14 -3 34 -4 45 -1 22 -610 638 -654 661 -16 8 -55 15 -88 15 -70 1
-70 0 -11 87 96 141 168 337 189 512 39 336 -59 669 -271 925 -184 220 -430
366 -708 420 -80 15 -266 25 -338 18z m247 -478 c306 -59 539 -292 598 -600
23 -117 5 -294 -41 -410 -202 -505 -864 -633 -1235 -239 -99 106 -167 234
-194 369 -17 81 -12 258 9 330 2 6 6 24 11 40 25 93 123 249 204 324 99 91
257 170 376 187 22 4 41 7 43 8 9 9 172 2 229 -9z"/>
</g>
</svg>
