<?xml version="1.0" standalone="no"?>
<!DOCTYPE svg PUBLIC "-//W3C//DTD SVG 20010904//EN"
 "http://www.w3.org/TR/2001/REC-SVG-20010904/DTD/svg10.dtd">
<svg version="1.0" xmlns="http://www.w3.org/2000/svg"
 width="260.000000pt" height="260.000000pt" viewBox="0 0 260.000000 260.000000"
 preserveAspectRatio="xMidYMid meet">
<metadata>
Created by potrace 1.14, written by Peter Selinger 2001-2017
</metadata>
<g transform="translate(0.000000,260.000000) scale(0.100000,-0.100000)"
fill="#000000" stroke="none">
<path d="M0 1300 l0 -1300 1300 0 1300 0 0 1300 0 1300 -1300 0 -1300 0 0
-1300z m1055 655 c219 -57 374 -291 335 -507 -18 -101 -68 -195 -141 -262 -96
-89 -186 -126 -309 -126 -125 0 -220 40 -316 132 -108 104 -161 255 -136 390
32 176 169 328 332 372 72 19 162 20 235 1z m542 -717 c64 -48 311 -243 467
-366 118 -94 128 -176 31 -261 -29 -25 -44 -31 -83 -31 -28 0 -59 7 -77 18
-43 27 -513 397 -557 440 -53 50 -65 91 -43 147 9 24 32 58 51 75 30 25 43 30
89 30 49 0 59 -4 122 -52z"/>
<path d="M844 1881 c-100 -26 -205 -117 -251 -218 -22 -48 -27 -72 -27 -148 0
-80 3 -97 30 -155 37 -80 105 -149 182 -187 51 -25 67 -28 162 -28 94 0 111 3
160 27 184 91 265 314 182 502 -29 65 -106 143 -177 178 -50 26 -74 31 -145
34 -47 2 -99 0 -116 -5z m194 -76 c76 -23 116 -63 142 -141 12 -36 20 -68 17
-71 -3 -3 -20 11 -37 31 -40 45 -136 109 -197 132 -27 9 -64 24 -83 32 l-35
15 30 7 c51 13 109 11 163 -5z"/>
<path d="M1449 1206 c-30 -14 -48 -49 -42 -80 3 -16 40 -51 106 -103 56 -44
187 -146 290 -226 103 -81 197 -147 208 -147 32 0 70 49 67 84 -3 27 -36 57
-278 248 -151 119 -287 221 -301 226 -18 7 -34 6 -50 -2z"/>
</g>
</svg>
