<?xml version="1.0" standalone="no"?>
<!DOCTYPE svg PUBLIC "-//W3C//DTD SVG 20010904//EN"
 "http://www.w3.org/TR/2001/REC-SVG-20010904/DTD/svg10.dtd">
<svg version="1.0" xmlns="http://www.w3.org/2000/svg"
 width="600.000000pt" height="600.000000pt" viewBox="0 0 600.000000 600.000000"
 preserveAspectRatio="xMidYMid meet">
<metadata>
Created by potrace 1.14, written by Peter Selinger 2001-2017
</metadata>
<g transform="translate(0.000000,600.000000) scale(0.100000,-0.100000)"
fill="#000000" stroke="none">
<path d="M2755 5604 c-195 -19 -432 -67 -565 -114 -165 -58 -226 -83 -353
-146 -259 -129 -457 -272 -675 -488 -375 -370 -621 -817 -721 -1311 -42 -206
-46 -255 -46 -545 0 -290 4 -339 46 -545 101 -497 347 -944 726 -1316 215
-212 407 -351 660 -478 261 -131 484 -201 808 -253 109 -17 621 -17 730 0 170
28 351 69 445 102 165 58 226 83 353 146 259 129 457 272 675 488 218 215 375
430 506 693 63 127 88 188 146 353 33 94 74 275 102 445 8 52 13 181 13 365 0
184 -5 313 -13 365 -28 170 -69 351 -102 445 -58 165 -83 226 -146 353 -130
261 -267 452 -483 670 -216 220 -429 376 -691 508 -255 127 -467 195 -775 246
-86 14 -546 26 -640 17z m-404 -1079 c231 -44 479 -186 612 -352 54 -67 157
-228 157 -245 0 -5 9 -28 20 -52 27 -61 56 -176 71 -284 28 -210 -42 -476
-179 -685 -47 -72 -178 -206 -257 -262 -312 -223 -705 -260 -1044 -98 -128 61
-193 107 -288 200 -75 75 -153 164 -153 175 0 3 -16 31 -35 63 -163 271 -178
649 -37 945 150 315 421 525 767 595 85 18 276 18 366 0z m1184 -1569 c28 -12
69 -38 92 -57 23 -19 106 -84 185 -146 79 -62 202 -159 274 -215 72 -57 200
-157 284 -223 84 -66 190 -149 236 -185 45 -36 118 -93 161 -127 113 -89 166
-149 193 -219 44 -116 10 -242 -93 -345 -78 -78 -113 -93 -223 -97 -111 -5
-143 8 -259 99 -44 35 -112 89 -151 119 -66 51 -149 116 -508 398 -72 57 -153
121 -181 142 -27 21 -90 71 -140 110 -49 39 -112 88 -140 109 -77 59 -152 139
-176 190 -18 35 -23 64 -24 121 0 65 4 84 32 140 38 77 108 150 178 184 70 35
188 36 260 2z"/>
<path d="M2030 4360 c-346 -53 -627 -312 -717 -658 -26 -103 -23 -343 7 -437
54 -172 106 -261 219 -379 125 -129 236 -194 411 -241 203 -54 450 -25 630 73
290 159 460 442 460 768 0 280 -85 469 -300 670 -92 86 -220 154 -355 190 -70
18 -276 26 -355 14z m326 -188 c102 -27 199 -78 253 -133 46 -47 54 -59 85
-129 14 -32 86 -239 86 -248 0 -16 -36 13 -79 66 -135 162 -337 289 -602 377
-77 26 -139 51 -139 55 0 30 294 39 396 12z"/>
<path d="M3330 2792 c-19 -9 -48 -36 -64 -60 -25 -35 -30 -52 -30 -97 1 -70
15 -89 120 -172 156 -124 199 -157 283 -223 46 -36 143 -112 217 -170 73 -58
199 -157 280 -220 81 -63 210 -165 288 -227 146 -116 176 -131 241 -119 79 15
153 120 140 198 -12 74 60 11 -695 603 -151 118 -267 209 -385 302 -33 26 -93
73 -133 105 -40 33 -87 68 -105 78 -40 25 -110 26 -157 2z"/>
</g>
</svg>
